<svg xmlns="http://www.w3.org/2000/svg" viewBox="0 0 1200 750" role="img" aria-label="Placeholder screenshotu workflow">
  <rect width="1200" height="750" fill="#f7f8f9"/>
  <rect x="52" y="52" width="1096" height="646" rx="18" fill="#ffffff" stroke="#d7dde3" stroke-width="2"/>
  <rect x="92" y="96" width="210" height="34" rx="6" fill="#147e74"/>
  <rect x="92" y="182" width="238" height="420" rx="12" fill="#eef2f4"/>
  <rect x="378" y="182" width="238" height="420" rx="12" fill="#eef2f4"/>
  <rect x="664" y="182" width="238" height="420" rx="12" fill="#eef2f4"/>
  <path d="M334 392h36m250 0h36" stroke="#147e74" stroke-width="8" stroke-linecap="round"/>
  <circle cx="211" cy="260" r="42" fill="#147e74"/>
  <circle cx="497" cy="260" r="42" fill="#147e74"/>
  <circle cx="783" cy="260" r="42" fill="#147e74"/>
  <rect x="132" y="344" width="158" height="18" rx="4" fill="#4c5a68"/>
  <rect x="132" y="386" width="130" height="18" rx="4" fill="#687686"/>
  <rect x="418" y="344" width="158" height="18" rx="4" fill="#4c5a68"/>
  <rect x="418" y="386" width="130" height="18" rx="4" fill="#687686"/>
  <rect x="704" y="344" width="158" height="18" rx="4" fill="#4c5a68"/>
  <rect x="704" y="386" width="130" height="18" rx="4" fill="#687686"/>
  <text x="92" y="668" fill="#687686" font-family="Arial, sans-serif" font-size="30">WORKFLOW SCREENSHOT PLACEHOLDER</text>
</svg>
